<svg width="40" height="40" viewBox="0 0 40 40" fill="none" xmlns="http://www.w3.org/2000/svg">
<path d="M3.33325 31.6666V21.6666C3.33325 20.9166 3.48603 20.2361 3.79159 19.625C4.09714 19.0139 4.49992 18.4722 4.99992 18V13.3333C4.99992 11.9444 5.48603 10.7639 6.45825 9.79165C7.43047 8.81942 8.61103 8.33331 9.99992 8.33331H16.6666C17.3055 8.33331 17.9027 8.45137 18.4583 8.68748C19.0138 8.92359 19.5277 9.24998 19.9999 9.66665C20.4721 9.24998 20.986 8.92359 21.5416 8.68748C22.0971 8.45137 22.6944 8.33331 23.3333 8.33331H29.9999C31.3888 8.33331 32.5694 8.81942 33.5416 9.79165C34.5138 10.7639 34.9999 11.9444 34.9999 13.3333V18C35.4999 18.4722 35.9027 19.0139 36.2082 19.625C36.5138 20.2361 36.6666 20.9166 36.6666 21.6666V31.6666H33.3333V28.3333H6.66658V31.6666H3.33325ZM21.6666 16.6666H31.6666V13.3333C31.6666 12.8611 31.5069 12.4653 31.1874 12.1458C30.868 11.8264 30.4721 11.6666 29.9999 11.6666H23.3333C22.861 11.6666 22.4652 11.8264 22.1458 12.1458C21.8263 12.4653 21.6666 12.8611 21.6666 13.3333V16.6666ZM8.33325 16.6666H18.3333V13.3333C18.3333 12.8611 18.1735 12.4653 17.8541 12.1458C17.5346 11.8264 17.1388 11.6666 16.6666 11.6666H9.99992C9.5277 11.6666 9.13186 11.8264 8.81242 12.1458C8.49297 12.4653 8.33325 12.8611 8.33325 13.3333V16.6666ZM6.66658 25H33.3333V21.6666C33.3333 21.1944 33.1735 20.7986 32.8541 20.4791C32.5346 20.1597 32.1388 20 31.6666 20H8.33325C7.86103 20 7.4652 20.1597 7.14575 20.4791C6.82631 20.7986 6.66658 21.1944 6.66658 21.6666V25Z" fill="#1A1A1A"/>
</svg>
