<svg width="40" height="40" viewBox="0 0 40 40" fill="none" xmlns="http://www.w3.org/2000/svg">
<path d="M11.6666 15C10.7499 15 9.9652 14.6736 9.31242 14.0208C8.65964 13.368 8.33325 12.5833 8.33325 11.6666C8.33325 10.75 8.65964 9.96526 9.31242 9.31248C9.9652 8.6597 10.7499 8.33331 11.6666 8.33331C12.5833 8.33331 13.368 8.6597 14.0208 9.31248C14.6735 9.96526 14.9999 10.75 14.9999 11.6666C14.9999 12.5833 14.6735 13.368 14.0208 14.0208C13.368 14.6736 12.5833 15 11.6666 15ZM8.33325 36.6666C7.86103 36.6666 7.4652 36.5069 7.14575 36.1875C6.82631 35.868 6.66658 35.4722 6.66658 35C5.74992 35 4.9652 34.6736 4.31242 34.0208C3.65964 33.368 3.33325 32.5833 3.33325 31.6666V21.6666H8.33325V20.4166C8.33325 19.3611 8.69436 18.4722 9.41658 17.75C10.1388 17.0278 11.0277 16.6666 12.0833 16.6666C12.6388 16.6666 13.1527 16.7778 13.6249 17C14.0971 17.2222 14.5277 17.5278 14.9166 17.9166L17.2499 20.5C17.4721 20.7222 17.6874 20.9305 17.8958 21.125C18.1041 21.3194 18.3333 21.5 18.5833 21.6666H29.9999V8.08331C29.9999 7.69442 29.861 7.36109 29.5833 7.08331C29.3055 6.80554 28.9721 6.66665 28.5833 6.66665C28.4166 6.66665 28.2569 6.70137 28.1041 6.77081C27.9513 6.84026 27.8055 6.94442 27.6666 7.08331L25.5833 9.16665C25.7221 9.63887 25.7499 10.1041 25.6666 10.5625C25.5833 11.0208 25.4166 11.4444 25.1666 11.8333L20.5833 7.16665C20.9721 6.91665 21.3888 6.75692 21.8333 6.68748C22.2777 6.61804 22.7221 6.66665 23.1666 6.83331L25.2499 4.74998C25.6944 4.30554 26.2013 3.95831 26.7708 3.70831C27.3402 3.45831 27.9444 3.33331 28.5833 3.33331C29.9166 3.33331 31.0416 3.79165 31.9583 4.70831C32.8749 5.62498 33.3333 6.74998 33.3333 8.08331V21.6666H36.6666V31.6666C36.6666 32.5833 36.3402 33.368 35.6874 34.0208C35.0346 34.6736 34.2499 35 33.3333 35C33.3333 35.4722 33.1735 35.868 32.8541 36.1875C32.5346 36.5069 32.1388 36.6666 31.6666 36.6666H8.33325ZM6.66658 31.6666H33.3333V25H6.66658V31.6666Z" fill="#1A1A1A"/>
</svg>
