<svg width="30" height="29" viewBox="0 0 30 29" fill="none" xmlns="http://www.w3.org/2000/svg">
<path d="M28.25 28.6243C24.7778 28.6243 21.3403 27.9087 17.9375 26.4775C14.5347 25.0463 11.4444 23.0055 8.66667 20.3551C5.88889 17.7047 3.75 14.7627 2.25 11.5292C0.75 8.29575 0 5.00925 0 1.66975V0H9.83333L11.375 7.99095L6.625 12.5629C7.23611 13.5965 7.91667 14.5772 8.66667 15.5048C9.41667 16.4325 10.2222 17.2939 11.0833 18.089C11.8889 18.8576 12.7708 19.5931 13.7292 20.2954C14.6875 20.9978 15.7222 21.6538 16.8333 22.2634L21.6667 17.6517L30 19.2817V28.6243H28.25ZM5.04167 9.54144L7.79167 6.91754L7.08333 3.18048H3.375C3.51389 4.37316 3.72222 5.49295 4 6.53986C4.27778 7.58677 4.625 8.58729 5.04167 9.54144ZM19.9583 23.7741C21.0694 24.2246 22.1875 24.5825 23.3125 24.8475C24.4375 25.1125 25.5556 25.2848 26.6667 25.3643V21.8658L22.75 21.1104L19.9583 23.7741Z" fill="#0A0A0A"/>
</svg>
