<svg width="178" height="73" viewBox="0 0 178 73" fill="none" xmlns="http://www.w3.org/2000/svg">
<path d="M16.8 39.56C14.5867 39.56 12.5333 39.2133 10.64 38.52C8.74667 37.8 7.10667 36.7867 5.72 35.48C4.36 34.1733 3.29333 32.64 2.52 30.88C1.74667 29.0933 1.36 27.1333 1.36 25C1.36 22.8667 1.74667 20.92 2.52 19.16C3.29333 17.3733 4.37333 15.8267 5.76 14.52C7.14667 13.2133 8.78667 12.2133 10.68 11.52C12.6 10.8 14.6933 10.44 16.96 10.44C19.6 10.44 21.96 10.88 24.04 11.76C26.12 12.64 27.84 13.9067 29.2 15.56L24.16 20.12C23.2 19.08 22.16 18.3067 21.04 17.8C19.9467 17.2667 18.72 17 17.36 17C16.16 17 15.0667 17.1867 14.08 17.56C13.0933 17.9333 12.2533 18.48 11.56 19.2C10.8667 19.8933 10.32 20.7333 9.92 21.72C9.54667 22.68 9.36 23.7733 9.36 25C9.36 26.1733 9.54667 27.2533 9.92 28.24C10.32 29.2267 10.8667 30.08 11.56 30.8C12.2533 31.4933 13.08 32.04 14.04 32.44C15.0267 32.8133 16.1067 33 17.28 33C18.4533 33 19.6 32.8133 20.72 32.44C21.84 32.04 22.9733 31.3733 24.12 30.44L28.56 36C26.96 37.1467 25.1067 38.0267 23 38.64C20.8933 39.2533 18.8267 39.56 16.8 39.56ZM21.56 34.96V24.4H28.56V36L21.56 34.96ZM34.0212 39V17.32H41.6212V39H34.0212ZM37.8212 14.92C36.4346 14.92 35.3146 14.5333 34.4612 13.76C33.6079 12.9867 33.1812 12.0267 33.1812 10.88C33.1812 9.73333 33.6079 8.77333 34.4612 8C35.3146 7.22667 36.4346 6.84 37.8212 6.84C39.2079 6.84 40.3279 7.21333 41.1812 7.96C42.0346 8.68 42.4612 9.61333 42.4612 10.76C42.4612 11.96 42.0346 12.96 41.1812 13.76C40.3546 14.5333 39.2346 14.92 37.8212 14.92ZM47.3603 39V9.32H54.9603V39H47.3603ZM74.3394 39.36C72.3927 39.36 70.766 38.96 69.4594 38.16C68.1794 37.36 67.2194 36.1333 66.5794 34.48C65.9394 32.8267 65.6194 30.7067 65.6194 28.12C65.6194 25.5867 65.9527 23.4933 66.6194 21.84C67.3127 20.1867 68.3127 18.96 69.6194 18.16C70.926 17.36 72.4994 16.96 74.3394 16.96C76.3127 16.96 78.0994 17.4133 79.6994 18.32C81.326 19.2267 82.606 20.52 83.5394 22.2C84.4994 23.8533 84.9794 25.8267 84.9794 28.12C84.9794 30.44 84.4994 32.44 83.5394 34.12C82.606 35.7733 81.326 37.0667 79.6994 38C78.0994 38.9067 76.3127 39.36 74.3394 39.36ZM60.6994 39V9.32H68.2994V20.96L67.8994 28.12L67.9394 35.28V39H60.6994ZM72.7394 33.32C73.5927 33.32 74.3527 33.12 75.0194 32.72C75.7127 32.32 76.2594 31.7333 76.6594 30.96C77.086 30.16 77.2994 29.2133 77.2994 28.12C77.2994 27.0267 77.086 26.1067 76.6594 25.36C76.2594 24.5867 75.7127 24 75.0194 23.6C74.3527 23.2 73.5927 23 72.7394 23C71.886 23 71.1127 23.2 70.4194 23.6C69.7527 24 69.206 24.5867 68.7794 25.36C68.3794 26.1067 68.1794 27.0267 68.1794 28.12C68.1794 29.2133 68.3794 30.16 68.7794 30.96C69.206 31.7333 69.7527 32.32 70.4194 32.72C71.1127 33.12 71.886 33.32 72.7394 33.32ZM100.672 39.36C98.1119 39.36 95.8719 38.88 93.9519 37.92C92.0585 36.9333 90.5785 35.6 89.5119 33.92C88.4719 32.2133 87.9519 30.28 87.9519 28.12C87.9519 25.96 88.4585 24.04 89.4719 22.36C90.5119 20.6533 91.9385 19.3333 93.7519 18.4C95.5652 17.44 97.6052 16.96 99.8719 16.96C102.005 16.96 103.952 17.4 105.712 18.28C107.472 19.1333 108.872 20.4 109.912 22.08C110.952 23.76 111.472 25.8 111.472 28.2C111.472 28.4667 111.459 28.7733 111.432 29.12C111.405 29.4667 111.379 29.7867 111.352 30.08H94.1919V26.08H107.312L104.432 27.2C104.459 26.2133 104.272 25.36 103.872 24.64C103.499 23.92 102.965 23.36 102.272 22.96C101.605 22.56 100.819 22.36 99.9119 22.36C99.0052 22.36 98.2052 22.56 97.5119 22.96C96.8452 23.36 96.3252 23.9333 95.9519 24.68C95.5785 25.4 95.3919 26.2533 95.3919 27.24V28.4C95.3919 29.4667 95.6052 30.3867 96.0319 31.16C96.4852 31.9333 97.1252 32.5333 97.9519 32.96C98.7785 33.36 99.7652 33.56 100.912 33.56C101.979 33.56 102.885 33.4133 103.632 33.12C104.405 32.8 105.165 32.32 105.912 31.68L109.912 35.84C108.872 36.9867 107.592 37.8667 106.072 38.48C104.552 39.0667 102.752 39.36 100.672 39.36ZM115.776 39V17.32H123.016V23.64L121.936 21.84C122.576 20.2133 123.616 19 125.056 18.2C126.496 17.3733 128.243 16.96 130.296 16.96V23.8C129.949 23.7467 129.643 23.72 129.376 23.72C129.136 23.6933 128.869 23.68 128.576 23.68C127.029 23.68 125.776 24.1067 124.816 24.96C123.856 25.7867 123.376 27.1467 123.376 29.04V39H115.776ZM144.576 39.36C141.803 39.36 139.643 38.68 138.096 37.32C136.55 35.9333 135.776 33.8533 135.776 31.08V12.48H143.376V31C143.376 31.7733 143.59 32.3867 144.016 32.84C144.443 33.2667 144.99 33.48 145.656 33.48C146.563 33.48 147.336 33.2533 147.976 32.8L149.856 38.12C149.216 38.5467 148.43 38.8533 147.496 39.04C146.563 39.2533 145.59 39.36 144.576 39.36ZM132.616 23.8V18.12H148.336V23.8H132.616ZM163.842 39.36C161.469 39.36 159.362 38.88 157.522 37.92C155.682 36.96 154.229 35.64 153.162 33.96C152.122 32.2533 151.602 30.3067 151.602 28.12C151.602 25.9333 152.122 24 153.162 22.32C154.229 20.64 155.682 19.3333 157.522 18.4C159.362 17.44 161.469 16.96 163.842 16.96C166.215 16.96 168.322 17.44 170.162 18.4C172.029 19.3333 173.482 20.64 174.522 22.32C175.562 24 176.082 25.9333 176.082 28.12C176.082 30.3067 175.562 32.2533 174.522 33.96C173.482 35.64 172.029 36.96 170.162 37.92C168.322 38.88 166.215 39.36 163.842 39.36ZM163.842 33.32C164.722 33.32 165.495 33.12 166.162 32.72C166.855 32.32 167.402 31.7333 167.802 30.96C168.202 30.16 168.402 29.2133 168.402 28.12C168.402 27.0267 168.202 26.1067 167.802 25.36C167.402 24.5867 166.855 24 166.162 23.6C165.495 23.2 164.722 23 163.842 23C162.989 23 162.215 23.2 161.522 23.6C160.855 24 160.309 24.5867 159.882 25.36C159.482 26.1067 159.282 27.0267 159.282 28.12C159.282 29.2133 159.482 30.16 159.882 30.96C160.309 31.7333 160.855 32.32 161.522 32.72C162.215 33.12 162.989 33.32 163.842 33.32Z" fill="black"/>
<path d="M10.032 67.192C8.752 67.192 7.568 66.984 6.48 66.568C5.408 66.136 4.472 65.536 3.672 64.768C2.888 63.984 2.272 63.072 1.824 62.032C1.376 60.992 1.152 59.848 1.152 58.6C1.152 57.352 1.376 56.208 1.824 55.168C2.272 54.128 2.896 53.224 3.696 52.456C4.496 51.672 5.432 51.072 6.504 50.656C7.592 50.224 8.776 50.008 10.056 50.008C11.352 50.008 12.544 50.232 13.632 50.68C14.736 51.112 15.672 51.76 16.44 52.624L14.88 54.136C14.24 53.464 13.52 52.968 12.72 52.648C11.92 52.312 11.064 52.144 10.152 52.144C9.208 52.144 8.328 52.304 7.512 52.624C6.712 52.944 6.016 53.392 5.424 53.968C4.832 54.544 4.368 55.232 4.032 56.032C3.712 56.816 3.552 57.672 3.552 58.6C3.552 59.528 3.712 60.392 4.032 61.192C4.368 61.976 4.832 62.656 5.424 63.232C6.016 63.808 6.712 64.256 7.512 64.576C8.328 64.896 9.208 65.056 10.152 65.056C11.064 65.056 11.92 64.896 12.72 64.576C13.52 64.24 14.24 63.728 14.88 63.04L16.44 64.552C15.672 65.416 14.736 66.072 13.632 66.52C12.544 66.968 11.344 67.192 10.032 67.192ZM26.8367 67.144C25.5567 67.144 24.4207 66.864 23.4287 66.304C22.4367 65.744 21.6527 64.976 21.0767 64C20.5007 63.008 20.2127 61.888 20.2127 60.64C20.2127 59.376 20.5007 58.256 21.0767 57.28C21.6527 56.304 22.4367 55.544 23.4287 55C24.4207 54.44 25.5567 54.16 26.8367 54.16C28.1007 54.16 29.2287 54.44 30.2207 55C31.2287 55.544 32.0127 56.304 32.5727 57.28C33.1487 58.24 33.4367 59.36 33.4367 60.64C33.4367 61.904 33.1487 63.024 32.5727 64C32.0127 64.976 31.2287 65.744 30.2207 66.304C29.2287 66.864 28.1007 67.144 26.8367 67.144ZM26.8367 65.128C27.6527 65.128 28.3807 64.944 29.0207 64.576C29.6767 64.208 30.1887 63.688 30.5567 63.016C30.9247 62.328 31.1087 61.536 31.1087 60.64C31.1087 59.728 30.9247 58.944 30.5567 58.288C30.1887 57.616 29.6767 57.096 29.0207 56.728C28.3807 56.36 27.6527 56.176 26.8367 56.176C26.0207 56.176 25.2927 56.36 24.6527 56.728C24.0127 57.096 23.5007 57.616 23.1167 58.288C22.7327 58.944 22.5407 59.728 22.5407 60.64C22.5407 61.536 22.7327 62.328 23.1167 63.016C23.5007 63.688 24.0127 64.208 24.6527 64.576C25.2927 64.944 26.0207 65.128 26.8367 65.128ZM45.8151 54.16C46.8551 54.16 47.7671 54.36 48.5511 54.76C49.3511 55.16 49.9751 55.768 50.4231 56.584C50.8711 57.4 51.0951 58.432 51.0951 59.68V67H48.7911V59.944C48.7911 58.712 48.4871 57.784 47.8791 57.16C47.2871 56.536 46.4471 56.224 45.3591 56.224C44.5431 56.224 43.8311 56.384 43.2231 56.704C42.6151 57.024 42.1431 57.496 41.8071 58.12C41.4871 58.744 41.3271 59.52 41.3271 60.448V67H39.0231V54.28H41.2311V57.712L40.8711 56.8C41.2871 55.968 41.9271 55.32 42.7911 54.856C43.6551 54.392 44.6631 54.16 45.8151 54.16ZM61.407 67.144C60.351 67.144 59.343 67 58.383 66.712C57.439 66.424 56.695 66.072 56.151 65.656L57.111 63.832C57.655 64.2 58.327 64.512 59.127 64.768C59.927 65.024 60.743 65.152 61.575 65.152C62.647 65.152 63.415 65 63.879 64.696C64.359 64.392 64.599 63.968 64.599 63.424C64.599 63.024 64.455 62.712 64.167 62.488C63.879 62.264 63.495 62.096 63.015 61.984C62.551 61.872 62.031 61.776 61.455 61.696C60.879 61.6 60.303 61.488 59.727 61.36C59.151 61.216 58.623 61.024 58.143 60.784C57.663 60.528 57.279 60.184 56.991 59.752C56.703 59.304 56.559 58.712 56.559 57.976C56.559 57.208 56.775 56.536 57.207 55.96C57.639 55.384 58.247 54.944 59.031 54.64C59.831 54.32 60.775 54.16 61.863 54.16C62.695 54.16 63.535 54.264 64.383 54.472C65.247 54.664 65.951 54.944 66.495 55.312L65.511 57.136C64.935 56.752 64.335 56.488 63.711 56.344C63.087 56.2 62.463 56.128 61.839 56.128C60.831 56.128 60.079 56.296 59.583 56.632C59.087 56.952 58.839 57.368 58.839 57.88C58.839 58.312 58.983 58.648 59.271 58.888C59.575 59.112 59.959 59.288 60.423 59.416C60.903 59.544 61.431 59.656 62.007 59.752C62.583 59.832 63.159 59.944 63.735 60.088C64.311 60.216 64.831 60.4 65.295 60.64C65.775 60.88 66.159 61.216 66.447 61.648C66.751 62.08 66.903 62.656 66.903 63.376C66.903 64.144 66.679 64.808 66.231 65.368C65.783 65.928 65.151 66.368 64.335 66.688C63.519 66.992 62.543 67.144 61.407 67.144ZM76.5504 67.144C75.2704 67.144 74.2784 66.8 73.5744 66.112C72.8704 65.424 72.5184 64.44 72.5184 63.16V51.496H74.8224V63.064C74.8224 63.752 74.9904 64.28 75.3264 64.648C75.6784 65.016 76.1744 65.2 76.8144 65.2C77.5344 65.2 78.1344 65 78.6144 64.6L79.3344 66.256C78.9824 66.56 78.5584 66.784 78.0624 66.928C77.5824 67.072 77.0784 67.144 76.5504 67.144ZM70.3584 56.176V54.28H78.4704V56.176H70.3584ZM84.5199 67V54.28H86.7279V57.736L86.5119 56.872C86.8639 55.992 87.4559 55.32 88.2879 54.856C89.1199 54.392 90.1439 54.16 91.3599 54.16V56.392C91.2639 56.376 91.1679 56.368 91.0719 56.368C90.9919 56.368 90.9119 56.368 90.8319 56.368C89.5999 56.368 88.6239 56.736 87.9039 57.472C87.1839 58.208 86.8239 59.272 86.8239 60.664V67H84.5199ZM102.116 67.144C101.028 67.144 100.068 66.944 99.2357 66.544C98.4197 66.144 97.7797 65.536 97.3157 64.72C96.8677 63.888 96.6437 62.848 96.6437 61.6V54.28H98.9477V61.336C98.9477 62.584 99.2437 63.52 99.8357 64.144C100.444 64.768 101.292 65.08 102.38 65.08C103.18 65.08 103.876 64.92 104.468 64.6C105.06 64.264 105.516 63.784 105.836 63.16C106.156 62.52 106.316 61.752 106.316 60.856V54.28H108.62V67H106.436V63.568L106.796 64.48C106.38 65.328 105.756 65.984 104.924 66.448C104.092 66.912 103.156 67.144 102.116 67.144ZM120.95 67.144C119.654 67.144 118.494 66.864 117.47 66.304C116.462 65.744 115.67 64.976 115.094 64C114.518 63.024 114.23 61.904 114.23 60.64C114.23 59.376 114.518 58.256 115.094 57.28C115.67 56.304 116.462 55.544 117.47 55C118.494 54.44 119.654 54.16 120.95 54.16C122.102 54.16 123.126 54.392 124.022 54.856C124.934 55.304 125.638 55.976 126.134 56.872L124.382 58C123.966 57.376 123.454 56.92 122.846 56.632C122.254 56.328 121.614 56.176 120.926 56.176C120.094 56.176 119.35 56.36 118.694 56.728C118.038 57.096 117.518 57.616 117.134 58.288C116.75 58.944 116.558 59.728 116.558 60.64C116.558 61.552 116.75 62.344 117.134 63.016C117.518 63.688 118.038 64.208 118.694 64.576C119.35 64.944 120.094 65.128 120.926 65.128C121.614 65.128 122.254 64.984 122.846 64.696C123.454 64.392 123.966 63.928 124.382 63.304L126.134 64.408C125.638 65.288 124.934 65.968 124.022 66.448C123.126 66.912 122.102 67.144 120.95 67.144ZM119.822 72.376C119.406 72.376 119.022 72.328 118.67 72.232C118.318 72.152 117.99 72.024 117.686 71.848L118.19 70.672C118.446 70.816 118.702 70.92 118.958 70.984C119.23 71.048 119.518 71.08 119.822 71.08C120.286 71.08 120.622 70.992 120.83 70.816C121.054 70.656 121.166 70.424 121.166 70.12C121.166 69.832 121.054 69.6 120.83 69.424C120.622 69.264 120.278 69.184 119.798 69.184H119.15L119.75 66.832H121.07L120.71 68.2C121.398 68.264 121.918 68.48 122.27 68.848C122.622 69.216 122.798 69.664 122.798 70.192C122.798 70.864 122.526 71.392 121.982 71.776C121.438 72.176 120.718 72.376 119.822 72.376ZM136.777 67.144C135.497 67.144 134.361 66.864 133.369 66.304C132.377 65.744 131.593 64.976 131.017 64C130.441 63.008 130.153 61.888 130.153 60.64C130.153 59.376 130.441 58.256 131.017 57.28C131.593 56.304 132.377 55.544 133.369 55C134.361 54.44 135.497 54.16 136.777 54.16C138.041 54.16 139.169 54.44 140.161 55C141.169 55.544 141.953 56.304 142.513 57.28C143.089 58.24 143.377 59.36 143.377 60.64C143.377 61.904 143.089 63.024 142.513 64C141.953 64.976 141.169 65.744 140.161 66.304C139.169 66.864 138.041 67.144 136.777 67.144ZM136.777 65.128C137.593 65.128 138.321 64.944 138.961 64.576C139.617 64.208 140.129 63.688 140.497 63.016C140.865 62.328 141.049 61.536 141.049 60.64C141.049 59.728 140.865 58.944 140.497 58.288C140.129 57.616 139.617 57.096 138.961 56.728C138.321 56.36 137.593 56.176 136.777 56.176C135.961 56.176 135.233 56.36 134.593 56.728C133.953 57.096 133.441 57.616 133.057 58.288C132.673 58.944 132.481 59.728 132.481 60.64C132.481 61.536 132.673 62.328 133.057 63.016C133.441 63.688 133.953 64.208 134.593 64.576C135.233 64.944 135.961 65.128 136.777 65.128ZM138.433 52.36C138.049 52.36 137.705 52.28 137.401 52.12C137.113 51.96 136.849 51.776 136.609 51.568C136.369 51.344 136.137 51.152 135.913 50.992C135.689 50.832 135.465 50.752 135.241 50.752C134.889 50.752 134.601 50.888 134.377 51.16C134.169 51.416 134.049 51.776 134.017 52.24H132.721C132.753 51.344 132.977 50.632 133.393 50.104C133.809 49.576 134.369 49.312 135.073 49.312C135.457 49.312 135.801 49.4 136.105 49.576C136.409 49.736 136.681 49.928 136.921 50.152C137.161 50.36 137.385 50.544 137.593 50.704C137.817 50.864 138.041 50.944 138.265 50.944C138.617 50.944 138.905 50.816 139.129 50.56C139.353 50.304 139.473 49.952 139.489 49.504H140.785C140.769 50.352 140.545 51.04 140.113 51.568C139.697 52.096 139.137 52.36 138.433 52.36ZM154.628 67.144C153.268 67.144 152.068 66.864 151.028 66.304C150.004 65.744 149.204 64.976 148.628 64C148.068 63.024 147.788 61.904 147.788 60.64C147.788 59.376 148.06 58.256 148.604 57.28C149.164 56.304 149.924 55.544 150.884 55C151.86 54.44 152.956 54.16 154.172 54.16C155.404 54.16 156.492 54.432 157.436 54.976C158.38 55.52 159.116 56.288 159.644 57.28C160.188 58.256 160.46 59.4 160.46 60.712C160.46 60.808 160.452 60.92 160.436 61.048C160.436 61.176 160.428 61.296 160.412 61.408H149.588V59.752H159.212L158.276 60.328C158.292 59.512 158.124 58.784 157.772 58.144C157.42 57.504 156.932 57.008 156.308 56.656C155.7 56.288 154.988 56.104 154.172 56.104C153.372 56.104 152.66 56.288 152.036 56.656C151.412 57.008 150.924 57.512 150.572 58.168C150.22 58.808 150.044 59.544 150.044 60.376V60.76C150.044 61.608 150.236 62.368 150.62 63.04C151.02 63.696 151.572 64.208 152.276 64.576C152.98 64.944 153.788 65.128 154.7 65.128C155.452 65.128 156.132 65 156.74 64.744C157.364 64.488 157.908 64.104 158.372 63.592L159.644 65.08C159.068 65.752 158.348 66.264 157.484 66.616C156.636 66.968 155.684 67.144 154.628 67.144ZM169.707 67.144C168.651 67.144 167.643 67 166.683 66.712C165.739 66.424 164.995 66.072 164.451 65.656L165.411 63.832C165.955 64.2 166.627 64.512 167.427 64.768C168.227 65.024 169.043 65.152 169.875 65.152C170.947 65.152 171.715 65 172.179 64.696C172.659 64.392 172.899 63.968 172.899 63.424C172.899 63.024 172.755 62.712 172.467 62.488C172.179 62.264 171.795 62.096 171.315 61.984C170.851 61.872 170.331 61.776 169.755 61.696C169.179 61.6 168.603 61.488 168.027 61.36C167.451 61.216 166.923 61.024 166.443 60.784C165.963 60.528 165.579 60.184 165.291 59.752C165.003 59.304 164.859 58.712 164.859 57.976C164.859 57.208 165.075 56.536 165.507 55.96C165.939 55.384 166.547 54.944 167.331 54.64C168.131 54.32 169.075 54.16 170.163 54.16C170.995 54.16 171.835 54.264 172.683 54.472C173.547 54.664 174.251 54.944 174.795 55.312L173.811 57.136C173.235 56.752 172.635 56.488 172.011 56.344C171.387 56.2 170.763 56.128 170.139 56.128C169.131 56.128 168.379 56.296 167.883 56.632C167.387 56.952 167.139 57.368 167.139 57.88C167.139 58.312 167.283 58.648 167.571 58.888C167.875 59.112 168.259 59.288 168.723 59.416C169.203 59.544 169.731 59.656 170.307 59.752C170.883 59.832 171.459 59.944 172.035 60.088C172.611 60.216 173.131 60.4 173.595 60.64C174.075 60.88 174.459 61.216 174.747 61.648C175.051 62.08 175.203 62.656 175.203 63.376C175.203 64.144 174.979 64.808 174.531 65.368C174.083 65.928 173.451 66.368 172.635 66.688C171.819 66.992 170.843 67.144 169.707 67.144Z" fill="black"/>
</svg>
