<svg width="201" height="76" viewBox="0 0 201 76" fill="none" xmlns="http://www.w3.org/2000/svg">
<path d="M2.8 39V11H17.12C20.8 11 23.5467 11.68 25.36 13.04C27.1733 14.3733 28.08 16.1333 28.08 18.32C28.08 19.76 27.6933 21.0267 26.92 22.12C26.1733 23.1867 25.1067 24.04 23.72 24.68C22.36 25.2933 20.7333 25.6 18.84 25.6L19.64 23.68C21.6133 23.68 23.3333 23.9867 24.8 24.6C26.2667 25.1867 27.4 26.0533 28.2 27.2C29.0267 28.32 29.44 29.6933 29.44 31.32C29.44 33.7467 28.4533 35.64 26.48 37C24.5333 38.3333 21.68 39 17.92 39H2.8ZM10.64 33.28H17.28C18.64 33.28 19.6667 33.0533 20.36 32.6C21.08 32.12 21.44 31.4 21.44 30.44C21.44 29.48 21.08 28.7733 20.36 28.32C19.6667 27.84 18.64 27.6 17.28 27.6H10.08V22.12H16.08C17.4133 22.12 18.4133 21.8933 19.08 21.44C19.7467 20.9867 20.08 20.3067 20.08 19.4C20.08 18.4933 19.7467 17.8267 19.08 17.4C18.4133 16.9467 17.4133 16.72 16.08 16.72H10.64V33.28ZM33.1822 39V17.32H40.7822V39H33.1822ZM36.9822 14.92C35.5955 14.92 34.4755 14.5333 33.6222 13.76C32.7689 12.9867 32.3422 12.0267 32.3422 10.88C32.3422 9.73333 32.7689 8.77333 33.6222 8C34.4755 7.22667 35.5955 6.84 36.9822 6.84C38.3689 6.84 39.4889 7.21333 40.3422 7.96C41.1955 8.68 41.6222 9.61333 41.6222 10.76C41.6222 11.96 41.1955 12.96 40.3422 13.76C39.5155 14.5333 38.3955 14.92 36.9822 14.92ZM55.4013 39.36C52.6279 39.36 50.4679 38.68 48.9213 37.32C47.3746 35.9333 46.6013 33.8533 46.6013 31.08V12.48H54.2013V31C54.2013 31.7733 54.4146 32.3867 54.8413 32.84C55.2679 33.2667 55.8146 33.48 56.4813 33.48C57.3879 33.48 58.1613 33.2533 58.8013 32.8L60.6813 38.12C60.0413 38.5467 59.2546 38.8533 58.3213 39.04C57.3879 39.2533 56.4146 39.36 55.4013 39.36ZM43.4413 23.8V18.12H59.1613V23.8H43.4413ZM72.4269 39.36C70.4535 39.36 68.6535 38.9067 67.0269 38C65.4269 37.0667 64.1469 35.7733 63.1869 34.12C62.2269 32.44 61.7469 30.44 61.7469 28.12C61.7469 25.8267 62.2269 23.8533 63.1869 22.2C64.1469 20.52 65.4269 19.2267 67.0269 18.32C68.6535 17.4133 70.4535 16.96 72.4269 16.96C74.2935 16.96 75.8669 17.36 77.1469 18.16C78.4535 18.96 79.4402 20.1867 80.1069 21.84C80.7735 23.4933 81.1069 25.5867 81.1069 28.12C81.1069 30.7067 80.7869 32.8267 80.1469 34.48C79.5069 36.1333 78.5469 37.36 77.2669 38.16C75.9869 38.96 74.3735 39.36 72.4269 39.36ZM74.0269 33.32C74.8802 33.32 75.6402 33.12 76.3069 32.72C77.0002 32.32 77.5469 31.7333 77.9469 30.96C78.3469 30.16 78.5469 29.2133 78.5469 28.12C78.5469 27.0267 78.3469 26.1067 77.9469 25.36C77.5469 24.5867 77.0002 24 76.3069 23.6C75.6402 23.2 74.8802 23 74.0269 23C73.1469 23 72.3602 23.2 71.6669 23.6C71.0002 24 70.4669 24.5867 70.0669 25.36C69.6669 26.1067 69.4669 27.0267 69.4669 28.12C69.4669 29.2133 69.6669 30.16 70.0669 30.96C70.4669 31.7333 71.0002 32.32 71.6669 32.72C72.3602 33.12 73.1469 33.32 74.0269 33.32ZM78.7869 39V35.28L78.8269 28.12L78.4269 20.96V9.32H86.0269V39H78.7869ZM90.9166 39V17.32H98.5166V39H90.9166ZM94.7166 14.92C93.3299 14.92 92.2099 14.5333 91.3566 13.76C90.5032 12.9867 90.0766 12.0267 90.0766 10.88C90.0766 9.73333 90.5032 8.77333 91.3566 8C92.2099 7.22667 93.3299 6.84 94.7166 6.84C96.1032 6.84 97.2232 7.21333 98.0766 7.96C98.9299 8.68 99.3566 9.61333 99.3566 10.76C99.3566 11.96 98.9299 12.96 98.0766 13.76C97.2499 14.5333 96.1299 14.92 94.7166 14.92ZM117.576 16.96C119.256 16.96 120.776 17.3067 122.136 18C123.496 18.6667 124.562 19.7067 125.336 21.12C126.136 22.5333 126.536 24.36 126.536 26.6V39H118.936V27.84C118.936 26.2933 118.616 25.1733 117.976 24.48C117.362 23.76 116.496 23.4 115.376 23.4C114.576 23.4 113.842 23.5867 113.176 23.96C112.509 24.3067 111.989 24.8533 111.616 25.6C111.242 26.3467 111.056 27.32 111.056 28.52V39H103.456V17.32H110.696V23.48L109.296 21.68C110.122 20.1067 111.256 18.9333 112.696 18.16C114.136 17.36 115.762 16.96 117.576 16.96ZM142.181 47.12C140.101 47.12 138.114 46.88 136.221 46.4C134.354 45.92 132.754 45.2133 131.421 44.28L134.181 38.96C135.087 39.68 136.207 40.24 137.541 40.64C138.901 41.0667 140.221 41.28 141.501 41.28C143.554 41.28 145.034 40.8267 145.941 39.92C146.847 39.04 147.301 37.7467 147.301 36.04V33.48L147.701 27.4L147.661 21.28V17.32H154.901V35.04C154.901 39.1467 153.794 42.1867 151.581 44.16C149.367 46.1333 146.234 47.12 142.181 47.12ZM140.861 37.88C138.941 37.88 137.167 37.4533 135.541 36.6C133.941 35.72 132.647 34.5067 131.661 32.96C130.701 31.3867 130.221 29.5333 130.221 27.4C130.221 25.2667 130.701 23.4267 131.661 21.88C132.647 20.3067 133.941 19.0933 135.541 18.24C137.167 17.3867 138.941 16.96 140.861 16.96C142.701 16.96 144.274 17.3333 145.581 18.08C146.887 18.8 147.874 19.9333 148.541 21.48C149.234 23.0267 149.581 25 149.581 27.4C149.581 29.8 149.234 31.7733 148.541 33.32C147.874 34.8667 146.887 36.0133 145.581 36.76C144.274 37.5067 142.701 37.88 140.861 37.88ZM142.661 31.84C143.567 31.84 144.367 31.6533 145.061 31.28C145.781 30.9067 146.341 30.3867 146.741 29.72C147.167 29.0533 147.381 28.28 147.381 27.4C147.381 26.52 147.167 25.7467 146.741 25.08C146.341 24.4133 145.781 23.9067 145.061 23.56C144.367 23.1867 143.567 23 142.661 23C141.754 23 140.941 23.1867 140.221 23.56C139.501 23.9067 138.927 24.4133 138.501 25.08C138.101 25.7467 137.901 26.52 137.901 27.4C137.901 28.28 138.101 29.0533 138.501 29.72C138.927 30.3867 139.501 30.9067 140.221 31.28C140.941 31.6533 141.754 31.84 142.661 31.84ZM171.144 39.36C168.584 39.36 166.344 38.88 164.424 37.92C162.53 36.9333 161.05 35.6 159.984 33.92C158.944 32.2133 158.424 30.28 158.424 28.12C158.424 25.96 158.93 24.04 159.944 22.36C160.984 20.6533 162.41 19.3333 164.224 18.4C166.037 17.44 168.077 16.96 170.344 16.96C172.477 16.96 174.424 17.4 176.184 18.28C177.944 19.1333 179.344 20.4 180.384 22.08C181.424 23.76 181.944 25.8 181.944 28.2C181.944 28.4667 181.93 28.7733 181.904 29.12C181.877 29.4667 181.85 29.7867 181.824 30.08H164.664V26.08H177.784L174.904 27.2C174.93 26.2133 174.744 25.36 174.344 24.64C173.97 23.92 173.437 23.36 172.744 22.96C172.077 22.56 171.29 22.36 170.384 22.36C169.477 22.36 168.677 22.56 167.984 22.96C167.317 23.36 166.797 23.9333 166.424 24.68C166.05 25.4 165.864 26.2533 165.864 27.24V28.4C165.864 29.4667 166.077 30.3867 166.504 31.16C166.957 31.9333 167.597 32.5333 168.424 32.96C169.25 33.36 170.237 33.56 171.384 33.56C172.45 33.56 173.357 33.4133 174.104 33.12C174.877 32.8 175.637 32.32 176.384 31.68L180.384 35.84C179.344 36.9867 178.064 37.8667 176.544 38.48C175.024 39.0667 173.224 39.36 171.144 39.36ZM185.448 39V17.32H192.688V23.64L191.608 21.84C192.248 20.2133 193.288 19 194.728 18.2C196.168 17.3733 197.914 16.96 199.968 16.96V23.8C199.621 23.7467 199.314 23.72 199.048 23.72C198.808 23.6933 198.541 23.68 198.248 23.68C196.701 23.68 195.448 24.1067 194.488 24.96C193.528 25.7867 193.048 27.1467 193.048 29.04V39H185.448Z" fill="black"/>
<path d="M10.032 70.192C8.752 70.192 7.568 69.984 6.48 69.568C5.408 69.136 4.472 68.536 3.672 67.768C2.888 66.984 2.272 66.072 1.824 65.032C1.376 63.992 1.152 62.848 1.152 61.6C1.152 60.352 1.376 59.208 1.824 58.168C2.272 57.128 2.896 56.224 3.696 55.456C4.496 54.672 5.432 54.072 6.504 53.656C7.592 53.224 8.776 53.008 10.056 53.008C11.352 53.008 12.544 53.232 13.632 53.68C14.736 54.112 15.672 54.76 16.44 55.624L14.88 57.136C14.24 56.464 13.52 55.968 12.72 55.648C11.92 55.312 11.064 55.144 10.152 55.144C9.208 55.144 8.328 55.304 7.512 55.624C6.712 55.944 6.016 56.392 5.424 56.968C4.832 57.544 4.368 58.232 4.032 59.032C3.712 59.816 3.552 60.672 3.552 61.6C3.552 62.528 3.712 63.392 4.032 64.192C4.368 64.976 4.832 65.656 5.424 66.232C6.016 66.808 6.712 67.256 7.512 67.576C8.328 67.896 9.208 68.056 10.152 68.056C11.064 68.056 11.92 67.896 12.72 67.576C13.52 67.24 14.24 66.728 14.88 66.04L16.44 67.552C15.672 68.416 14.736 69.072 13.632 69.52C12.544 69.968 11.344 70.192 10.032 70.192ZM29.2367 70.144C27.9567 70.144 26.8207 69.864 25.8287 69.304C24.8367 68.744 24.0527 67.976 23.4767 67C22.9007 66.008 22.6127 64.888 22.6127 63.64C22.6127 62.376 22.9007 61.256 23.4767 60.28C24.0527 59.304 24.8367 58.544 25.8287 58C26.8207 57.44 27.9567 57.16 29.2367 57.16C30.5007 57.16 31.6287 57.44 32.6207 58C33.6287 58.544 34.4127 59.304 34.9727 60.28C35.5487 61.24 35.8367 62.36 35.8367 63.64C35.8367 64.904 35.5487 66.024 34.9727 67C34.4127 67.976 33.6287 68.744 32.6207 69.304C31.6287 69.864 30.5007 70.144 29.2367 70.144ZM29.2367 68.128C30.0527 68.128 30.7807 67.944 31.4207 67.576C32.0767 67.208 32.5887 66.688 32.9567 66.016C33.3247 65.328 33.5087 64.536 33.5087 63.64C33.5087 62.728 33.3247 61.944 32.9567 61.288C32.5887 60.616 32.0767 60.096 31.4207 59.728C30.7807 59.36 30.0527 59.176 29.2367 59.176C28.4207 59.176 27.6927 59.36 27.0527 59.728C26.4127 60.096 25.9007 60.616 25.5167 61.288C25.1327 61.944 24.9407 62.728 24.9407 63.64C24.9407 64.536 25.1327 65.328 25.5167 66.016C25.9007 66.688 26.4127 67.208 27.0527 67.576C27.6927 67.944 28.4207 68.128 29.2367 68.128ZM50.6151 57.16C51.6551 57.16 52.5671 57.36 53.3511 57.76C54.1511 58.16 54.7751 58.768 55.2231 59.584C55.6711 60.4 55.8951 61.432 55.8951 62.68V70H53.5911V62.944C53.5911 61.712 53.2871 60.784 52.6791 60.16C52.0871 59.536 51.2471 59.224 50.1591 59.224C49.3431 59.224 48.6311 59.384 48.0231 59.704C47.4151 60.024 46.9431 60.496 46.6071 61.12C46.2871 61.744 46.1271 62.52 46.1271 63.448V70H43.8231V57.28H46.0311V60.712L45.6711 59.8C46.0871 58.968 46.7271 58.32 47.5911 57.856C48.4551 57.392 49.4631 57.16 50.6151 57.16ZM68.607 70.144C67.551 70.144 66.543 70 65.583 69.712C64.639 69.424 63.895 69.072 63.351 68.656L64.311 66.832C64.855 67.2 65.527 67.512 66.327 67.768C67.127 68.024 67.943 68.152 68.775 68.152C69.847 68.152 70.615 68 71.079 67.696C71.559 67.392 71.799 66.968 71.799 66.424C71.799 66.024 71.655 65.712 71.367 65.488C71.079 65.264 70.695 65.096 70.215 64.984C69.751 64.872 69.231 64.776 68.655 64.696C68.079 64.6 67.503 64.488 66.927 64.36C66.351 64.216 65.823 64.024 65.343 63.784C64.863 63.528 64.479 63.184 64.191 62.752C63.903 62.304 63.759 61.712 63.759 60.976C63.759 60.208 63.975 59.536 64.407 58.96C64.839 58.384 65.447 57.944 66.231 57.64C67.031 57.32 67.975 57.16 69.063 57.16C69.895 57.16 70.735 57.264 71.583 57.472C72.447 57.664 73.151 57.944 73.695 58.312L72.711 60.136C72.135 59.752 71.535 59.488 70.911 59.344C70.287 59.2 69.663 59.128 69.039 59.128C68.031 59.128 67.279 59.296 66.783 59.632C66.287 59.952 66.039 60.368 66.039 60.88C66.039 61.312 66.183 61.648 66.471 61.888C66.775 62.112 67.159 62.288 67.623 62.416C68.103 62.544 68.631 62.656 69.207 62.752C69.783 62.832 70.359 62.944 70.935 63.088C71.511 63.216 72.031 63.4 72.495 63.64C72.975 63.88 73.359 64.216 73.647 64.648C73.951 65.08 74.103 65.656 74.103 66.376C74.103 67.144 73.879 67.808 73.431 68.368C72.983 68.928 72.351 69.368 71.535 69.688C70.719 69.992 69.743 70.144 68.607 70.144ZM86.1504 70.144C84.8704 70.144 83.8784 69.8 83.1744 69.112C82.4704 68.424 82.1184 67.44 82.1184 66.16V54.496H84.4224V66.064C84.4224 66.752 84.5904 67.28 84.9264 67.648C85.2784 68.016 85.7744 68.2 86.4144 68.2C87.1344 68.2 87.7344 68 88.2144 67.6L88.9344 69.256C88.5824 69.56 88.1584 69.784 87.6624 69.928C87.1824 70.072 86.6784 70.144 86.1504 70.144ZM79.9584 59.176V57.28H88.0704V59.176H79.9584ZM96.5199 70V57.28H98.7279V60.736L98.5119 59.872C98.8639 58.992 99.4559 58.32 100.288 57.856C101.12 57.392 102.144 57.16 103.36 57.16V59.392C103.264 59.376 103.168 59.368 103.072 59.368C102.992 59.368 102.912 59.368 102.832 59.368C101.6 59.368 100.624 59.736 99.9039 60.472C99.1839 61.208 98.8239 62.272 98.8239 63.664V70H96.5199ZM116.516 70.144C115.428 70.144 114.468 69.944 113.636 69.544C112.82 69.144 112.18 68.536 111.716 67.72C111.268 66.888 111.044 65.848 111.044 64.6V57.28H113.348V64.336C113.348 65.584 113.644 66.52 114.236 67.144C114.844 67.768 115.692 68.08 116.78 68.08C117.58 68.08 118.276 67.92 118.868 67.6C119.46 67.264 119.916 66.784 120.236 66.16C120.556 65.52 120.716 64.752 120.716 63.856V57.28H123.02V70H120.836V66.568L121.196 67.48C120.78 68.328 120.156 68.984 119.324 69.448C118.492 69.912 117.556 70.144 116.516 70.144ZM137.75 70.144C136.454 70.144 135.294 69.864 134.27 69.304C133.262 68.744 132.47 67.976 131.894 67C131.318 66.024 131.03 64.904 131.03 63.64C131.03 62.376 131.318 61.256 131.894 60.28C132.47 59.304 133.262 58.544 134.27 58C135.294 57.44 136.454 57.16 137.75 57.16C138.902 57.16 139.926 57.392 140.822 57.856C141.734 58.304 142.438 58.976 142.934 59.872L141.182 61C140.766 60.376 140.254 59.92 139.646 59.632C139.054 59.328 138.414 59.176 137.726 59.176C136.894 59.176 136.15 59.36 135.494 59.728C134.838 60.096 134.318 60.616 133.934 61.288C133.55 61.944 133.358 62.728 133.358 63.64C133.358 64.552 133.55 65.344 133.934 66.016C134.318 66.688 134.838 67.208 135.494 67.576C136.15 67.944 136.894 68.128 137.726 68.128C138.414 68.128 139.054 67.984 139.646 67.696C140.254 67.392 140.766 66.928 141.182 66.304L142.934 67.408C142.438 68.288 141.734 68.968 140.822 69.448C139.926 69.912 138.902 70.144 137.75 70.144ZM136.622 75.376C136.206 75.376 135.822 75.328 135.47 75.232C135.118 75.152 134.79 75.024 134.486 74.848L134.99 73.672C135.246 73.816 135.502 73.92 135.758 73.984C136.03 74.048 136.318 74.08 136.622 74.08C137.086 74.08 137.422 73.992 137.63 73.816C137.854 73.656 137.966 73.424 137.966 73.12C137.966 72.832 137.854 72.6 137.63 72.424C137.422 72.264 137.078 72.184 136.598 72.184H135.95L136.55 69.832H137.87L137.51 71.2C138.198 71.264 138.718 71.48 139.07 71.848C139.422 72.216 139.598 72.664 139.598 73.192C139.598 73.864 139.326 74.392 138.782 74.776C138.238 75.176 137.518 75.376 136.622 75.376ZM155.977 70.144C154.697 70.144 153.561 69.864 152.569 69.304C151.577 68.744 150.793 67.976 150.217 67C149.641 66.008 149.353 64.888 149.353 63.64C149.353 62.376 149.641 61.256 150.217 60.28C150.793 59.304 151.577 58.544 152.569 58C153.561 57.44 154.697 57.16 155.977 57.16C157.241 57.16 158.369 57.44 159.361 58C160.369 58.544 161.153 59.304 161.713 60.28C162.289 61.24 162.577 62.36 162.577 63.64C162.577 64.904 162.289 66.024 161.713 67C161.153 67.976 160.369 68.744 159.361 69.304C158.369 69.864 157.241 70.144 155.977 70.144ZM155.977 68.128C156.793 68.128 157.521 67.944 158.161 67.576C158.817 67.208 159.329 66.688 159.697 66.016C160.065 65.328 160.249 64.536 160.249 63.64C160.249 62.728 160.065 61.944 159.697 61.288C159.329 60.616 158.817 60.096 158.161 59.728C157.521 59.36 156.793 59.176 155.977 59.176C155.161 59.176 154.433 59.36 153.793 59.728C153.153 60.096 152.641 60.616 152.257 61.288C151.873 61.944 151.681 62.728 151.681 63.64C151.681 64.536 151.873 65.328 152.257 66.016C152.641 66.688 153.153 67.208 153.793 67.576C154.433 67.944 155.161 68.128 155.977 68.128ZM157.633 55.36C157.249 55.36 156.905 55.28 156.601 55.12C156.313 54.96 156.049 54.776 155.809 54.568C155.569 54.344 155.337 54.152 155.113 53.992C154.889 53.832 154.665 53.752 154.441 53.752C154.089 53.752 153.801 53.888 153.577 54.16C153.369 54.416 153.249 54.776 153.217 55.24H151.921C151.953 54.344 152.177 53.632 152.593 53.104C153.009 52.576 153.569 52.312 154.273 52.312C154.657 52.312 155.001 52.4 155.305 52.576C155.609 52.736 155.881 52.928 156.121 53.152C156.361 53.36 156.585 53.544 156.793 53.704C157.017 53.864 157.241 53.944 157.465 53.944C157.817 53.944 158.105 53.816 158.329 53.56C158.553 53.304 158.673 52.952 158.689 52.504H159.985C159.969 53.352 159.745 54.04 159.313 54.568C158.897 55.096 158.337 55.36 157.633 55.36ZM176.228 70.144C174.868 70.144 173.668 69.864 172.628 69.304C171.604 68.744 170.804 67.976 170.228 67C169.668 66.024 169.388 64.904 169.388 63.64C169.388 62.376 169.66 61.256 170.204 60.28C170.764 59.304 171.524 58.544 172.484 58C173.46 57.44 174.556 57.16 175.772 57.16C177.004 57.16 178.092 57.432 179.036 57.976C179.98 58.52 180.716 59.288 181.244 60.28C181.788 61.256 182.06 62.4 182.06 63.712C182.06 63.808 182.052 63.92 182.036 64.048C182.036 64.176 182.028 64.296 182.012 64.408H171.188V62.752H180.812L179.876 63.328C179.892 62.512 179.724 61.784 179.372 61.144C179.02 60.504 178.532 60.008 177.908 59.656C177.3 59.288 176.588 59.104 175.772 59.104C174.972 59.104 174.26 59.288 173.636 59.656C173.012 60.008 172.524 60.512 172.172 61.168C171.82 61.808 171.644 62.544 171.644 63.376V63.76C171.644 64.608 171.836 65.368 172.22 66.04C172.62 66.696 173.172 67.208 173.876 67.576C174.58 67.944 175.388 68.128 176.3 68.128C177.052 68.128 177.732 68 178.34 67.744C178.964 67.488 179.508 67.104 179.972 66.592L181.244 68.08C180.668 68.752 179.948 69.264 179.084 69.616C178.236 69.968 177.284 70.144 176.228 70.144ZM193.707 70.144C192.651 70.144 191.643 70 190.683 69.712C189.739 69.424 188.995 69.072 188.451 68.656L189.411 66.832C189.955 67.2 190.627 67.512 191.427 67.768C192.227 68.024 193.043 68.152 193.875 68.152C194.947 68.152 195.715 68 196.179 67.696C196.659 67.392 196.899 66.968 196.899 66.424C196.899 66.024 196.755 65.712 196.467 65.488C196.179 65.264 195.795 65.096 195.315 64.984C194.851 64.872 194.331 64.776 193.755 64.696C193.179 64.6 192.603 64.488 192.027 64.36C191.451 64.216 190.923 64.024 190.443 63.784C189.963 63.528 189.579 63.184 189.291 62.752C189.003 62.304 188.859 61.712 188.859 60.976C188.859 60.208 189.075 59.536 189.507 58.96C189.939 58.384 190.547 57.944 191.331 57.64C192.131 57.32 193.075 57.16 194.163 57.16C194.995 57.16 195.835 57.264 196.683 57.472C197.547 57.664 198.251 57.944 198.795 58.312L197.811 60.136C197.235 59.752 196.635 59.488 196.011 59.344C195.387 59.2 194.763 59.128 194.139 59.128C193.131 59.128 192.379 59.296 191.883 59.632C191.387 59.952 191.139 60.368 191.139 60.88C191.139 61.312 191.283 61.648 191.571 61.888C191.875 62.112 192.259 62.288 192.723 62.416C193.203 62.544 193.731 62.656 194.307 62.752C194.883 62.832 195.459 62.944 196.035 63.088C196.611 63.216 197.131 63.4 197.595 63.64C198.075 63.88 198.459 64.216 198.747 64.648C199.051 65.08 199.203 65.656 199.203 66.376C199.203 67.144 198.979 67.808 198.531 68.368C198.083 68.928 197.451 69.368 196.635 69.688C195.819 69.992 194.843 70.144 193.707 70.144Z" fill="black"/>
</svg>
